<svg width="140" height="26" viewBox="0 0 140 26" fill="none" xmlns="http://www.w3.org/2000/svg">
<path d="M40.6337 15.1684C43.385 17.4594 46.738 18.5375 49.9761 18.5375C52.9302 18.5375 54.6878 17.6885 54.6878 16.0781C54.6878 14.946 53.782 14.38 51.9365 14.124L46.258 13.3626C42.54 12.8505 40.5796 11.1524 40.5796 7.89788C40.5796 3.82127 44.0407 1.64483 49.3812 1.64483C52.7883 1.64483 55.3165 2.29844 56.9863 3.53827L57.669 8.3763C55.9655 6.56372 52.9843 5.35084 49.7462 5.35084C46.88 5.35084 44.8655 5.94381 44.8655 7.47338C44.8655 8.55149 45.5212 8.976 47.0219 9.19836L52.5314 9.93282C56.6753 10.4988 58.9737 12.2508 58.9737 15.5929C58.9737 19.9795 55.2557 22.2435 50.1451 22.2435C46.6839 22.2435 43.4188 21.4484 41.2894 20.0064L40.6337 15.1684Z" fill="#6366F1"/>
<path d="M40.6337 15.1684C43.385 17.4594 46.738 18.5375 49.9761 18.5375C52.9302 18.5375 54.6878 17.6885 54.6878 16.0781C54.6878 14.946 53.782 14.38 51.9365 14.124L46.258 13.3626C42.54 12.8505 40.5796 11.1524 40.5796 7.89788C40.5796 3.82127 44.0407 1.64483 49.3812 1.64483C52.7883 1.64483 55.3165 2.29844 56.9863 3.53827L57.669 8.3763C55.9655 6.56372 52.9843 5.35084 49.7462 5.35084C46.88 5.35084 44.8655 5.94381 44.8655 7.47338C44.8655 8.55149 45.5212 8.976 47.0219 9.19836L52.5314 9.93282C56.6753 10.4988 58.9737 12.2508 58.9737 15.5929C58.9737 19.9795 55.2557 22.2435 50.1451 22.2435C46.6839 22.2435 43.4188 21.4484 41.2894 20.0064L40.6337 15.1684Z" fill="#6474F3"/>
<path d="M60.9832 7.10295H65.2421V15.62C65.2421 17.4865 66.2899 18.5916 68.1692 18.5916C69.5888 18.5916 70.6704 17.9986 71.3464 17.0081V7.10295H75.6052V21.8461H71.3464V17.6887C70.7245 20.6872 69.244 22.1898 66.2966 22.1898C62.7476 22.1898 60.99 19.8382 60.99 16.3882V7.10969L60.9832 7.10295Z" fill="#6366F1"/>
<path d="M60.9832 7.10295H65.2421V15.62C65.2421 17.4865 66.2899 18.5916 68.1692 18.5916C69.5888 18.5916 70.6704 17.9986 71.3464 17.0081V7.10295H75.6052V21.8461H71.3464V17.6887C70.7245 20.6872 69.244 22.1898 66.2966 22.1898C62.7476 22.1898 60.99 19.8382 60.99 16.3882V7.10969L60.9832 7.10295Z" fill="#6474F3"/>
<path d="M78.5404 21.8459V1.19335L82.7992 0.654297V11.0109C83.509 8.55147 85.3275 6.76585 88.2478 6.76585C92.6757 6.76585 95.4608 9.96649 95.4608 14.4609C95.4608 18.9553 92.6757 22.1828 88.2478 22.1828C85.3207 22.1828 83.5361 20.4309 82.7992 17.9378V21.8392H78.5404V21.8459ZM82.7992 16.2734C83.5969 17.6615 85.0436 18.6251 86.9161 18.6251C89.7824 18.6251 91.229 16.7316 91.229 14.4676C91.229 12.2036 89.7824 10.3371 86.9161 10.3371C85.0436 10.3371 83.5969 11.3007 82.7992 12.6887V16.2802V16.2734Z" fill="#6366F1"/>
<path d="M78.5404 21.8459V1.19335L82.7992 0.654297V11.0109C83.509 8.55147 85.3275 6.76585 88.2478 6.76585C92.6757 6.76585 95.4608 9.96649 95.4608 14.4609C95.4608 18.9553 92.6757 22.1828 88.2478 22.1828C85.3207 22.1828 83.5361 20.4309 82.7992 17.9378V21.8392H78.5404V21.8459ZM82.7992 16.2734C83.5969 17.6615 85.0436 18.6251 86.9161 18.6251C89.7824 18.6251 91.229 16.7316 91.229 14.4676C91.229 12.2036 89.7824 10.3371 86.9161 10.3371C85.0436 10.3371 83.5969 11.3007 82.7992 12.6887V16.2802V16.2734Z" fill="#6474F3"/>
<path d="M97.6934 21.8459V1.19335L101.952 0.654297V21.8459H97.6934Z" fill="#6366F1"/>
<path d="M97.6934 21.8459V1.19335L101.952 0.654297V21.8459H97.6934Z" fill="#6474F3"/>
<path d="M120.307 15.3101H108.443C108.781 17.4865 110.546 18.7601 113.696 18.7601C116.339 18.7601 118.638 17.7965 120.226 16.2669L119.429 20.5929C118.063 21.5564 115.825 22.1763 113.209 22.1763C107.362 22.1763 104.185 19.0094 104.185 14.4544C104.185 10.1554 107.22 6.75933 112.56 6.75933C117.901 6.75933 120.307 10.0678 120.307 14.5689V15.3101ZM108.552 12.7361H116.272C115.934 11.065 114.764 9.71066 112.527 9.71066C110.289 9.71066 108.977 11.0111 108.552 12.7361Z" fill="#6366F1"/>
<path d="M120.307 15.3101H108.443C108.781 17.4865 110.546 18.7601 113.696 18.7601C116.339 18.7601 118.638 17.7965 120.226 16.2669L119.429 20.5929C118.063 21.5564 115.825 22.1763 113.209 22.1763C107.362 22.1763 104.185 19.0094 104.185 14.4544C104.185 10.1554 107.22 6.75933 112.56 6.75933C117.901 6.75933 120.307 10.0678 120.307 14.5689V15.3101ZM108.552 12.7361H116.272C115.934 11.065 114.764 9.71066 112.527 9.71066C110.289 9.71066 108.977 11.0111 108.552 12.7361Z" fill="#6474F3"/>
<path d="M120.809 21.8461L126.4 14.3735L120.836 7.10295H125.744L128.982 11.2874L132.132 7.10295H136.959L131.396 14.4611L137.101 21.8461H132.105L128.84 17.5741L125.69 21.8461H120.809Z" fill="#6366F1"/>
<path d="M120.809 21.8461L126.4 14.3735L120.836 7.10295H125.744L128.982 11.2874L132.132 7.10295H136.959L131.396 14.4611L137.101 21.8461H132.105L128.84 17.5741L125.69 21.8461H120.809Z" fill="#6474F3"/>
<path d="M17.3913 6.35556C15.2217 6.35556 13.0733 6.44138 11.0688 6.60833C9.06437 6.77529 7.24294 7.0201 5.70878 7.32858C4.1746 7.63708 2.9575 8.00348 2.12721 8.40655C1.29695 8.80962 0.869564 9.24151 0.869564 9.67778C0.869565 10.114 1.29695 10.5459 2.12721 10.949C2.9575 11.3521 4.1746 11.7185 5.70878 12.027C7.24294 12.3355 9.06437 12.5803 11.0688 12.7472C12.8227 12.8933 14.6868 12.9773 16.5789 12.9961L17.3913 13V19.6444C15.1074 19.6444 12.846 19.3904 10.736 18.8968C8.62594 18.4032 6.70862 17.6798 5.09369 16.7677C3.47882 15.8556 2.19786 14.7728 1.32388 13.5812C0.449884 12.3895 7.25958e-08 11.1121 0 9.82222C0 8.53235 0.449884 7.25497 1.32388 6.06328C2.19786 4.87165 3.47882 3.7888 5.09369 2.87676C6.70862 1.96468 8.62594 1.24123 10.736 0.747613C12.846 0.254005 15.1074 0 17.3913 0V6.35556Z" fill="#6366F1"/>
<path d="M17.3913 6.35556C15.2217 6.35556 13.0733 6.44138 11.0688 6.60833C9.06437 6.77529 7.24294 7.0201 5.70878 7.32858C4.1746 7.63708 2.9575 8.00348 2.12721 8.40655C1.29695 8.80962 0.869564 9.24151 0.869564 9.67778C0.869565 10.114 1.29695 10.5459 2.12721 10.949C2.9575 11.3521 4.1746 11.7185 5.70878 12.027C7.24294 12.3355 9.06437 12.5803 11.0688 12.7472C12.8227 12.8933 14.6868 12.9773 16.5789 12.9961L17.3913 13V19.6444C15.1074 19.6444 12.846 19.3904 10.736 18.8968C8.62594 18.4032 6.70862 17.6798 5.09369 16.7677C3.47882 15.8556 2.19786 14.7728 1.32388 13.5812C0.449884 12.3895 7.25958e-08 11.1121 0 9.82222C0 8.53235 0.449884 7.25497 1.32388 6.06328C2.19786 4.87165 3.47882 3.7888 5.09369 2.87676C6.70862 1.96468 8.62594 1.24123 10.736 0.747613C12.846 0.254005 15.1074 0 17.3913 0V6.35556Z" fill="#6474F3"/>
<path d="M17.3913 19.6444C19.5609 19.6444 21.7093 19.5586 23.7137 19.3917C25.7182 19.2247 27.5396 18.9799 29.0738 18.6714C30.608 18.3629 31.8251 17.9965 32.6554 17.5934C33.4856 17.1904 33.913 16.7585 33.913 16.3222C33.913 15.886 33.4856 15.4541 32.6554 15.051C31.8251 14.6479 30.608 14.2815 29.0738 13.973C27.5396 13.6645 25.7182 13.4197 23.7137 13.2528C21.9598 13.1067 20.0958 13.0227 18.2037 13.004L17.3913 13V6.35556C19.6751 6.35556 21.9366 6.60956 24.0466 7.10317C26.1566 7.59678 28.074 8.32024 29.6889 9.23231C31.3038 10.1444 32.5847 11.2272 33.4587 12.4188C34.3327 13.6105 34.7826 14.8879 34.7826 16.1778C34.7826 17.4677 34.3327 18.745 33.4587 19.9367C32.5847 21.1284 31.3038 22.2112 29.6889 23.1232C28.074 24.0353 26.1566 24.7588 24.0466 25.2524C21.9366 25.746 19.6751 26 17.3913 26V19.6444Z" fill="#6366F1"/>
<path d="M17.3913 19.6444C19.5609 19.6444 21.7093 19.5586 23.7137 19.3917C25.7182 19.2247 27.5396 18.9799 29.0738 18.6714C30.608 18.3629 31.8251 17.9965 32.6554 17.5934C33.4856 17.1904 33.913 16.7585 33.913 16.3222C33.913 15.886 33.4856 15.4541 32.6554 15.051C31.8251 14.6479 30.608 14.2815 29.0738 13.973C27.5396 13.6645 25.7182 13.4197 23.7137 13.2528C21.9598 13.1067 20.0958 13.0227 18.2037 13.004L17.3913 13V6.35556C19.6751 6.35556 21.9366 6.60956 24.0466 7.10317C26.1566 7.59678 28.074 8.32024 29.6889 9.23231C31.3038 10.1444 32.5847 11.2272 33.4587 12.4188C34.3327 13.6105 34.7826 14.8879 34.7826 16.1778C34.7826 17.4677 34.3327 18.745 33.4587 19.9367C32.5847 21.1284 31.3038 22.2112 29.6889 23.1232C28.074 24.0353 26.1566 24.7588 24.0466 25.2524C21.9366 25.746 19.6751 26 17.3913 26V19.6444Z" fill="#6474F3"/>
</svg>
