<svg width="200" height="38" viewBox="0 0 200 38" fill="none" xmlns="http://www.w3.org/2000/svg">
<path d="M58.048 22.17C61.9785 25.5183 66.7684 27.094 71.3943 27.094C75.6145 27.094 78.1253 25.8532 78.1253 23.4995C78.1253 21.845 76.8313 21.0177 74.1948 20.6435L66.0828 19.5307C60.7713 18.7822 57.9707 16.3005 57.9707 11.5438C57.9707 5.58569 62.9152 2.40474 70.5444 2.40474C75.4117 2.40474 79.0235 3.36001 81.4088 5.17207L82.3842 12.243C79.9506 9.59388 75.6917 7.82122 71.0659 7.82122C66.9712 7.82122 64.0934 8.68785 64.0934 10.9234C64.0934 12.4991 65.0301 13.1195 67.174 13.4445L75.0447 14.518C80.9646 15.3452 84.248 17.9057 84.248 22.7904C84.248 29.2015 78.9365 32.5105 71.6357 32.5105C66.6912 32.5105 62.0267 31.3484 58.9847 29.2409L58.048 22.17Z" fill="white"/>
<path d="M58.048 22.17C61.9785 25.5183 66.7684 27.094 71.3943 27.094C75.6145 27.094 78.1253 25.8532 78.1253 23.4995C78.1253 21.845 76.8313 21.0177 74.1948 20.6435L66.0828 19.5307C60.7713 18.7822 57.9707 16.3005 57.9707 11.5438C57.9707 5.58569 62.9152 2.40474 70.5444 2.40474C75.4117 2.40474 79.0235 3.36001 81.4088 5.17207L82.3842 12.243C79.9506 9.59388 75.6917 7.82122 71.0659 7.82122C66.9712 7.82122 64.0934 8.68785 64.0934 10.9234C64.0934 12.4991 65.0301 13.1195 67.174 13.4445L75.0447 14.518C80.9646 15.3452 84.248 17.9057 84.248 22.7904C84.248 29.2015 78.9365 32.5105 71.6357 32.5105C66.6912 32.5105 62.0267 31.3484 58.9847 29.2409L58.048 22.17Z" fill="white"/>
<path d="M87.1187 10.382H93.2028V22.83C93.2028 25.558 94.6997 27.1731 97.3844 27.1731C99.4124 27.1731 100.958 26.3064 101.923 24.8588V10.382H108.007V31.9297H101.923V25.8534C101.035 30.2358 98.9199 32.432 94.7093 32.432C89.6393 32.432 87.1284 28.995 87.1284 23.9527V10.3918L87.1187 10.382Z" fill="white"/>
<path d="M87.1187 10.382H93.2028V22.83C93.2028 25.558 94.6997 27.1731 97.3844 27.1731C99.4124 27.1731 100.958 26.3064 101.923 24.8588V10.382H108.007V31.9297H101.923V25.8534C101.035 30.2358 98.9199 32.432 94.7093 32.432C89.6393 32.432 87.1284 28.995 87.1284 23.9527V10.3918L87.1187 10.382Z" fill="white"/>
<path d="M112.2 31.9294V1.74488L118.284 0.957031V16.0936C119.298 12.4991 121.896 9.88929 126.068 9.88929C132.394 9.88929 136.372 14.5672 136.372 21.1359C136.372 27.7046 132.394 32.4218 126.068 32.4218C121.887 32.4218 119.337 29.8613 118.284 26.2175V31.9196H112.2V31.9294ZM118.284 23.785C119.424 25.8137 121.491 27.222 124.166 27.222C128.26 27.222 130.327 24.4547 130.327 21.1457C130.327 17.8367 128.26 15.1088 124.166 15.1088C121.491 15.1088 119.424 16.5171 118.284 18.5458V23.7949V23.785Z" fill="white"/>
<path d="M112.2 31.9294V1.74488L118.284 0.957031V16.0936C119.298 12.4991 121.896 9.88929 126.068 9.88929C132.394 9.88929 136.372 14.5672 136.372 21.1359C136.372 27.7046 132.394 32.4218 126.068 32.4218C121.887 32.4218 119.337 29.8613 118.284 26.2175V31.9196H112.2V31.9294ZM118.284 23.785C119.424 25.8137 121.491 27.222 124.166 27.222C128.26 27.222 130.327 24.4547 130.327 21.1457C130.327 17.8367 128.26 15.1088 124.166 15.1088C121.491 15.1088 119.424 16.5171 118.284 18.5458V23.7949V23.785Z" fill="white"/>
<path d="M139.562 31.9294V1.74488L145.646 0.957031V31.9294H139.562Z" fill="white"/>
<path d="M139.562 31.9294V1.74488L145.646 0.957031V31.9294H139.562Z" fill="white"/>
<path d="M171.868 22.3771H154.919C155.402 25.558 157.922 27.4193 162.423 27.4193C166.199 27.4193 169.482 26.011 171.752 23.7755L170.612 30.098C168.661 31.5063 165.465 32.4123 161.727 32.4123C153.374 32.4123 148.835 27.7837 148.835 21.1264C148.835 14.8432 153.171 9.87977 160.8 9.87977C168.43 9.87977 171.868 14.7152 171.868 21.2938V22.3771ZM155.074 18.6151H166.102C165.619 16.1727 163.949 14.1933 160.752 14.1933C157.555 14.1933 155.682 16.094 155.074 18.6151Z" fill="white"/>
<path d="M171.868 22.3771H154.919C155.402 25.558 157.922 27.4193 162.423 27.4193C166.199 27.4193 169.482 26.011 171.752 23.7755L170.612 30.098C168.661 31.5063 165.465 32.4123 161.727 32.4123C153.374 32.4123 148.835 27.7837 148.835 21.1264C148.835 14.8432 153.171 9.87977 160.8 9.87977C168.43 9.87977 171.868 14.7152 171.868 21.2938V22.3771ZM155.074 18.6151H166.102C165.619 16.1727 163.949 14.1933 160.752 14.1933C157.555 14.1933 155.682 16.094 155.074 18.6151Z" fill="white"/>
<path d="M172.585 31.9297L180.571 21.0081L172.623 10.382H179.634L184.26 16.4977L188.761 10.382H195.656L187.708 21.1362L195.859 31.9297H188.722L184.057 25.686L179.557 31.9297H172.585Z" fill="white"/>
<path d="M172.585 31.9297L180.571 21.0081L172.623 10.382H179.634L184.26 16.4977L188.761 10.382H195.656L187.708 21.1362L195.859 31.9297H188.722L184.057 25.686L179.557 31.9297H172.585Z" fill="white"/>
<path d="M24.8447 9.28889C21.7453 9.28889 18.6761 9.41433 15.8126 9.65833C12.9491 9.90234 10.3471 10.2601 8.1554 10.711C5.96371 11.1619 4.225 11.6974 3.03887 12.2865C1.85278 12.8756 1.24223 13.5068 1.24223 14.1444C1.24223 14.7821 1.85278 15.4133 3.03887 16.0024C4.225 16.5915 5.96371 17.127 8.1554 17.5779C10.3471 18.0288 12.9491 18.3865 15.8126 18.6306C18.3182 18.8441 20.9812 18.9669 23.6841 18.9942L24.8447 19V28.7111C21.5821 28.7111 18.3514 28.3399 15.3371 27.6184C12.3228 26.897 9.58374 25.8397 7.2767 24.5066C4.96975 23.1736 3.13981 21.591 1.89125 19.8494C0.642691 18.1077 1.03708e-07 16.2408 0 14.3556C0 12.4704 0.642691 10.6034 1.89125 8.86172C3.13981 7.1201 4.96975 5.53748 7.2767 4.20449C9.58374 2.87146 12.3228 1.8141 15.3371 1.09266C18.3514 0.371238 21.5821 0 24.8447 0V9.28889Z" fill="white"/>
<path d="M24.8447 9.28889C21.7453 9.28889 18.6761 9.41433 15.8126 9.65833C12.9491 9.90234 10.3471 10.2601 8.1554 10.711C5.96371 11.1619 4.225 11.6974 3.03887 12.2865C1.85278 12.8756 1.24223 13.5068 1.24223 14.1444C1.24223 14.7821 1.85278 15.4133 3.03887 16.0024C4.225 16.5915 5.96371 17.127 8.1554 17.5779C10.3471 18.0288 12.9491 18.3865 15.8126 18.6306C18.3182 18.8441 20.9812 18.9669 23.6841 18.9942L24.8447 19V28.7111C21.5821 28.7111 18.3514 28.3399 15.3371 27.6184C12.3228 26.897 9.58374 25.8397 7.2767 24.5066C4.96975 23.1736 3.13981 21.591 1.89125 19.8494C0.642691 18.1077 1.03708e-07 16.2408 0 14.3556C0 12.4704 0.642691 10.6034 1.89125 8.86172C3.13981 7.1201 4.96975 5.53748 7.2767 4.20449C9.58374 2.87146 12.3228 1.8141 15.3371 1.09266C18.3514 0.371238 21.5821 0 24.8447 0V9.28889Z" fill="white"/>
<path d="M24.8447 28.7111C27.9441 28.7111 31.0133 28.5857 33.8768 28.3417C36.7403 28.0977 39.3423 27.7399 41.534 27.289C43.7257 26.8381 45.4644 26.3026 46.6505 25.7135C47.8366 25.1244 48.4472 24.4932 48.4472 23.8556C48.4472 23.2179 47.8366 22.5867 46.6505 21.9976C45.4644 21.4085 43.7257 20.873 41.534 20.4221C39.3423 19.9713 36.7403 19.6135 33.8768 19.3694C31.3712 19.1559 28.7082 19.0331 26.0052 19.0058L24.8447 19V9.28889C28.1073 9.28889 31.338 9.66013 34.3523 10.3816C37.3666 11.103 40.1057 12.1603 42.4127 13.4934C44.7196 14.8264 46.5496 16.409 47.7981 18.1506C49.0467 19.8923 49.6894 21.7592 49.6894 23.6444C49.6894 25.5296 49.0467 27.3966 47.7981 29.1383C46.5496 30.8799 44.7196 32.4625 42.4127 33.7955C40.1057 35.1285 37.3666 36.1859 34.3523 36.9073C31.338 37.6288 28.1073 38 24.8447 38V28.7111Z" fill="white"/>
<path d="M24.8447 28.7111C27.9441 28.7111 31.0133 28.5857 33.8768 28.3417C36.7403 28.0977 39.3423 27.7399 41.534 27.289C43.7257 26.8381 45.4644 26.3026 46.6505 25.7135C47.8366 25.1244 48.4472 24.4932 48.4472 23.8556C48.4472 23.2179 47.8366 22.5867 46.6505 21.9976C45.4644 21.4085 43.7257 20.873 41.534 20.4221C39.3423 19.9713 36.7403 19.6135 33.8768 19.3694C31.3712 19.1559 28.7082 19.0331 26.0052 19.0058L24.8447 19V9.28889C28.1073 9.28889 31.338 9.66013 34.3523 10.3816C37.3666 11.103 40.1057 12.1603 42.4127 13.4934C44.7196 14.8264 46.5496 16.409 47.7981 18.1506C49.0467 19.8923 49.6894 21.7592 49.6894 23.6444C49.6894 25.5296 49.0467 27.3966 47.7981 29.1383C46.5496 30.8799 44.7196 32.4625 42.4127 33.7955C40.1057 35.1285 37.3666 36.1859 34.3523 36.9073C31.338 37.6288 28.1073 38 24.8447 38V28.7111Z" fill="white"/>
</svg>
